# Blender 4.3.2
# www.blender.org
mtllib untitled.mtl
o boat_5500
v 1728.626709 24.686665 603.128418
v 1403.061768 40.378399 593.857483
v 2324.361084 24.046864 887.314148
v 2176.990479 24.723423 863.113464
v 2176.981445 24.715252 -863.136658
v 2237.797607 23.086966 -415.552765
v 1728.622070 24.673813 -603.123779
v 1403.046387 39.698345 -593.380432
v 1611.647949 24.634756 317.296204
v -541.271729 26.723888 663.734009
v 1728.658447 24.683975 863.148071
v 700.000000 30.866098 728.978882
v 0.265553 27.924763 702.676880
v 1611.647949 24.634705 -317.296204
v 700.000000 31.223265 -730.342163
v 1728.649536 24.692005 -863.124878
v 1088.675903 40.315941 -599.773926
v 2400.769043 23.433500 -810.909485
v 1904.108765 24.711786 -317.268372
v -33.217068 29.946123 -697.505920
v -914.569824 24.897301 407.079834
v 2177.031494 24.667444 603.121521
v 1904.108765 24.711838 317.268372
v -914.573853 24.886063 -407.063232
v 1087.737671 39.885471 597.475952
v -498.948761 30.349457 -645.387451
v -576.361938 24.910078 421.032349
v -568.577820 20.991682 -422.792175
v 2061.967041 21.082554 853.359741
v 1831.305420 19.631872 890.316345
v 2042.979614 21.114519 -893.699890
v -927.566772 23.484928 -877.269043
v 2312.443115 22.823330 -890.789062
v -1828.518555 24.322617 228.293076
v -1479.000122 24.723650 -113.170036
v -1486.274780 25.533054 -155.513672
v -1475.134277 24.753626 115.144447
v -1528.463745 23.853312 -236.069534
v -1519.553101 24.705065 113.084396
v -1828.518677 24.305492 -228.293076
v -1523.568848 24.723955 151.623260
v -1538.092651 24.378231 238.315140
v -1533.856323 24.990990 -133.790573
v -1484.629761 25.160738 158.365128
v -1906.098633 -27.022209 -665.426453
v 1981.598022 -25.995893 226.940109
v -1939.074829 -18.891161 599.012146
v 2404.060791 16.986803 -425.143005
v -964.514282 0.399585 883.892273
v -1333.403198 -27.787361 759.890259
v 2360.972168 -28.577238 468.550720
v 2360.462402 -34.156658 728.231262
v 2404.188232 16.683439 425.015472
v 2334.721680 -23.054914 -850.462708
v -2932.020020 -13.644271 168.214737
v -3083.000244 -27.011179 -73.908730
v -2976.295654 -26.678473 -26.467520
v -2140.432861 -27.455719 -510.824097
v 1980.829346 -25.941904 -229.005798
v 2215.161865 -26.964998 -457.589081
v 2362.782715 -27.911974 -466.875031
v -1494.895874 -26.676638 -724.816895
v -770.261841 -25.725355 -850.263550
v 2405.839111 -3.898350 837.772827
v 2007.477417 22.398430 -200.373993
v -2861.073975 22.650631 215.296539
v -2870.831787 22.947071 -207.305405
v -3063.186523 22.546144 -55.775742
v -3077.246094 22.908340 43.544010
v -2032.850708 22.984755 608.186768
v -1997.406006 22.334288 -623.022034
v 2237.831055 23.086637 415.564850
v 2007.457275 22.411314 200.321014
v 2149.946289 -579.905762 -647.072083
v 2151.591309 -572.243713 -422.325806
v 909.327820 -472.064636 -795.492371
v -1536.838257 -275.211090 -574.275208
v -1090.349854 -248.710388 -710.684753
v -1189.124146 -587.347107 -503.303894
v -1335.352905 -582.437073 -418.400879
v -946.500183 -591.282837 -602.535706
v -612.006531 -580.341309 -675.913330
v -660.085022 -264.295502 -776.044556
v -612.250793 -561.152161 -711.994690
v 93.484085 -193.479858 -807.190796
v -214.803696 -578.363098 -721.162354
v 738.719177 -583.643738 -747.954285
v 51.762360 -558.517273 -776.958984
v 1148.832397 -146.044876 -810.906921
v 2147.078857 -293.455963 -791.517090
v 2089.979736 -578.117126 -727.206055
v 2265.087402 -224.508377 -732.761841
v 1900.529785 -579.873962 195.572098
v 1899.032593 -579.832458 -192.918823
v 2214.623291 -27.142351 455.709290
v 2147.080078 -573.505432 393.721527
v -691.834534 -300.010162 770.095215
v 2204.787598 -291.906097 750.322815
v 2149.997803 -579.769348 648.046204
v 2089.030762 -578.643555 725.030945
v 2301.149170 -33.947823 842.718750
v 2073.772217 -339.469025 787.700562
v 443.408234 -153.732712 810.599792
v 934.370178 -477.988983 794.567078
v 98.754272 -556.632812 778.475830
v 319.913361 -575.800293 741.263489
v -756.224243 -31.812057 843.384399
v -351.256866 -579.761719 707.919373
v -699.911926 -564.423889 698.376038
v -785.572693 -578.193298 639.037964
v -1430.769897 -318.619598 585.600464
v -1228.248413 -582.768127 481.119141
v -1663.453979 -579.907166 -198.927567
v -1717.581543 -579.915466 121.393242
v -959.572083 -579.999939 599.400818
v -301.949249 -579.999939 715.904175
v 440.250275 -579.999939 744.429688
v 284.508850 -580.000061 -745.351501
v -561.377258 -580.000061 -683.394714
v -1003.843140 -580.000061 -573.983276
v 2064.998779 21.155348 -851.174927
v 1846.158325 22.043299 847.698181
v 1843.683960 21.076628 -853.453186
v 2177.029053 24.673792 -603.123840
v -182.504929 420.376404 283.528809
v 65.570053 417.915527 429.150513
v -198.280655 416.622986 -206.639099
v 932.870728 420.047363 407.647186
v 931.143372 420.063538 -413.652252
v -3.082648 419.064575 -417.901642
v -159.696655 414.130890 -303.261139
v -391.134399 167.609818 359.808350
v 400.000000 -100.000000 -16.666658
v 0.000000 -100.000000 16.666674
v 400.000000 -413.000000 33.333363
v 0.000000 -413.000000 100.000031
v 0.000000 -413.000000 -99.999969
v 1033.567871 -413.000061 -675.455444
v -514.028931 -413.000061 -666.750793
v -509.870758 -412.999939 666.997070
v 1030.496948 -412.999939 678.526489
v 1030.496948 26.999949 -678.526428
v -509.870728 26.999950 -666.997009
v -514.028931 27.000050 666.750854
v 1033.567871 27.000051 675.455505
vn 0.4432 0.4350 0.7838
vn 0.1186 0.1543 -0.9809
vn -0.1602 0.2279 0.9604
vn 0.0123 0.9997 0.0196
vn 0.0293 0.9979 0.0582
vn 0.2784 0.4027 -0.8720
vn 0.1248 0.0148 0.9921
vn 0.0019 0.9995 -0.0306
vn -0.2351 0.3316 -0.9137
vn 0.0101 0.9999 -0.0087
vn -0.1434 -0.9897 0.0013
vn -0.0113 -0.9994 0.0316
vn -0.1907 -0.9140 -0.3582
vn 0.0003 -1.0000 -0.0025
vn 0.6378 -0.6271 0.4471
vn 0.8468 -0.3453 0.4046
vn 0.2902 -0.6317 0.7188
vn -0.1352 -0.8581 -0.4953
vn -0.0573 -0.4273 -0.9023
vn 0.5573 -0.5560 -0.6166
vn 0.7105 0.2717 0.6491
vn -0.5979 -0.4761 0.6449
vn -0.2090 -0.5297 0.8220
vn -0.2494 -0.5958 0.7634
vn -0.0389 -0.5624 0.8259
vn 0.8257 0.0664 0.5603
vn 0.3021 -0.2972 0.9057
vn 0.7310 -0.6724 0.1161
vn 0.7128 0.1889 -0.6755
vn 0.6228 -0.6220 -0.4745
vn 0.8310 -0.3701 -0.4153
vn 0.2919 -0.6231 -0.7257
vn 0.2512 0.8306 0.4970
vn 0.7538 0.5849 0.2993
vn 0.9002 0.3070 -0.3089
vn -0.2551 0.2981 -0.9198
vn -0.2350 0.6358 -0.7352
vn -0.4295 0.5297 -0.7314
vn -0.8745 0.1812 -0.4499
vn -0.5698 0.7747 -0.2742
vn -0.8582 0.2802 0.4301
vn -0.3321 0.6029 0.7254
vn -0.2635 0.3690 0.8913
vn 0.2543 0.9007 -0.3524
vn 0.7525 0.5886 -0.2955
vn -0.2685 -0.9196 -0.2870
vn -0.2286 -0.8956 -0.3817
vn -0.3527 -0.5626 -0.7477
vn -0.2931 -0.5196 -0.8026
vn -0.2646 -0.4331 -0.8616
vn -0.1997 -0.3623 -0.9104
vn -0.1100 -0.6043 -0.7891
vn -0.0933 -0.2638 -0.9601
vn -0.0302 -0.9550 -0.2950
vn -0.0243 -0.5760 -0.8171
vn -0.0344 -0.9370 -0.3476
vn -0.0075 -0.1526 -0.9883
vn -0.0447 -0.4249 -0.9042
vn 0.0006 -0.2141 -0.9768
vn 0.0119 -0.2215 -0.9751
vn 0.2749 -0.2830 -0.9189
vn 0.2741 -0.7407 -0.6134
vn 0.8321 -0.4229 -0.3589
vn 0.5767 -0.7972 -0.1782
vn 0.6237 -0.6915 0.3645
vn 0.5092 -0.8389 0.1921
vn 0.5001 -0.8395 -0.2124
vn 0.6207 -0.6648 -0.4157
vn 0.5809 -0.7914 0.1906
vn 0.2792 -0.7415 0.6100
vn 0.5290 -0.3456 0.7751
vn 0.1497 -0.2259 0.9626
vn 0.0134 -0.2209 0.9752
vn -0.0062 -0.1658 0.9861
vn -0.0281 -0.5722 0.8196
vn 0.0891 -0.8898 0.4475
vn -0.1119 -0.2648 0.9578
vn -0.0348 -0.9023 0.4298
vn -0.1417 -0.6718 0.7270
vn -0.1008 -0.9485 0.3002
vn -0.2777 -0.4964 0.8225
vn -0.1816 -0.8806 0.4378
vn -0.2542 -0.9483 0.1901
vn 0.0001 -1.0000 -0.0000
vn -0.0000 -1.0000 -0.0001
vn 0.0023 -0.9999 0.0157
vn 0.0013 -1.0000 -0.0029
vn -0.0011 -0.9999 -0.0123
vn -0.0082 -0.9994 -0.0331
vn -0.0237 0.9991 0.0355
vn 0.0046 0.9993 0.0364
vn -0.0340 0.9986 -0.0413
vn -0.0261 0.9993 0.0254
vn 0.0189 0.9994 0.0285
vn -0.0262 0.9992 -0.0314
vn 0.0352 0.9993 -0.0095
vn -0.0003 0.9992 0.0402
vn 0.0250 0.9991 0.0330
vn -0.0364 0.9992 0.0149
vn 0.0029 1.0000 -0.0048
vn -0.0216 0.9998 0.0009
vn 0.0046 0.9998 0.0169
vn -0.3289 0.9436 -0.0387
vn 0.0060 0.9998 0.0204
vn -0.0526 0.9763 -0.2100
vn 0.0272 0.9996 -0.0027
vn 0.0750 0.1989 -0.9772
vn 0.0452 0.9988 0.0160
vn 0.0410 0.9991 -0.0105
vn -0.0055 0.9999 -0.0092
vn 0.0018 1.0000 0.0072
vn 0.0288 0.9996 -0.0043
vn 0.0156 0.9954 0.0941
vn 0.0206 0.9997 0.0126
vn -0.0105 0.9838 0.1787
vn 0.2267 0.9504 0.2129
vn 0.0183 0.9111 0.4117
vn 0.0427 0.9376 -0.3452
vn 0.2454 0.9475 -0.2048
vn 0.0342 0.9993 0.0119
vn 0.4910 0.8045 -0.3342
vn -0.1835 0.8489 -0.4957
vn -0.0913 0.8797 0.4667
vn 0.4391 0.7915 0.4251
vn -0.3261 0.8884 -0.3232
vn -0.4197 0.9057 -0.0589
vn -0.4079 0.8671 0.2859
vn 0.0616 0.9270 0.3700
vn -0.0305 0.8645 0.5016
vn -0.6348 0.7622 0.1270
vn -0.4421 0.8153 0.3739
vn -0.0511 0.9057 -0.4208
vn -0.1463 0.9750 -0.1673
vn 0.0300 0.9056 -0.4230
vn -0.0067 0.9978 0.0667
vn 0.9729 0.1336 0.1889
vn 0.7306 0.6810 -0.0496
vn -0.5182 0.8494 0.0996
vn -0.5775 0.2100 0.7889
vn -0.5903 0.1163 -0.7988
vn -0.0000 1.0000 -0.0000
vn -0.5671 -0.5718 0.5928
vn 0.5753 -0.5803 0.5764
vn 0.7111 -0.0028 0.7031
vn -0.7164 -0.0198 0.6974
vn 0.5814 -0.5759 -0.5747
vn 0.7063 0.0063 -0.7079
vn -0.5708 -0.5702 -0.5908
vn -0.6919 -0.0210 -0.7217
s 1
usemtl mat-3
f 3//1 30//2 49//3
f 30//2 3//1 29//4
f 29//4 122//5 30//2
f 33//6 31//7 121//8
f 33//6 32//9 123//10
f 31//7 33//6 123//10
f 57//11 56//12 58//13
f 45//14 58//13 56//12
f 61//15 59//16 60//17
f 62//18 45//14 63//19
f 54//20 48//21 61//15
f 45//14 62//18 58//13
f 55//22 56//12 57//11
f 50//23 49//3 47//24
f 49//3 50//23 107//25
f 64//26 49//3 107//25
f 64//26 107//25 101//27
f 64//26 101//27 52//28
f 64//26 52//28 53//29
f 53//29 52//28 51//30
f 46//31 51//30 95//32
f 6//33 65//34 59//16
f 59//16 61//15 6//33
f 48//21 6//33 61//15
f 48//21 54//20 18//35
f 54//20 33//6 18//35
f 32//9 33//6 54//20
f 54//20 63//19 32//9
f 45//36 71//37 32//9
f 63//19 45//36 32//9
f 67//38 71//37 45//36
f 45//36 56//39 67//38
f 67//38 56//39 68//40
f 68//40 56//39 69//41
f 56//39 55//22 69//41
f 69//41 55//22 66//42
f 70//43 66//42 55//22
f 55//22 47//24 70//43
f 49//3 70//43 47//24
f 49//3 64//26 3//1
f 53//29 51//30 72//44
f 73//45 72//44 51//30
f 51//30 46//31 73//45
f 65//34 73//45 46//31
f 46//31 59//16 65//34
f 58//13 113//46 57//11
f 58//13 80//47 113//46
f 79//48 80//47 77//49
f 80//47 58//13 77//49
f 77//49 58//13 62//18
f 81//50 79//48 77//49
f 62//18 78//51 77//49
f 81//50 77//49 78//51
f 78//51 84//52 81//50
f 78//51 62//18 83//53
f 82//54 81//50 84//52
f 83//53 62//18 63//19
f 84//52 78//51 83//53
f 83//53 88//55 84//52
f 86//56 82//54 84//52
f 88//55 86//56 84//52
f 88//55 83//53 85//57
f 85//57 83//53 63//19
f 88//55 87//58 86//56
f 85//57 63//19 89//59
f 88//55 85//57 76//60
f 76//60 87//58 88//55
f 85//57 90//61 76//60
f 90//61 85//57 89//59
f 91//62 87//58 76//60
f 89//59 63//19 54//20
f 91//62 76//60 90//61
f 90//61 89//59 54//20
f 90//61 92//63 91//62
f 92//63 90//61 54//20
f 92//63 54//20 61//15
f 92//63 74//64 91//62
f 74//64 92//63 61//15
f 75//65 74//64 61//15
f 75//65 61//15 60//17
f 75//65 60//17 59//16
f 94//66 75//65 59//16
f 46//31 93//67 94//66
f 59//16 46//31 94//66
f 93//67 95//32 96//68
f 95//32 93//67 46//31
f 95//32 51//30 96//68
f 52//28 96//68 51//30
f 99//69 96//68 52//28
f 100//70 99//69 52//28
f 100//70 52//28 98//71
f 102//72 100//70 98//71
f 52//28 101//27 98//71
f 102//72 98//71 101//27
f 100//70 102//72 104//73
f 101//27 103//74 102//72
f 105//75 100//70 104//73
f 106//76 100//70 105//75
f 107//25 103//74 101//27
f 104//73 102//72 103//74
f 104//73 103//74 105//75
f 105//75 103//74 97//77
f 106//76 105//75 108//78
f 109//79 108//78 105//75
f 103//74 107//25 97//77
f 109//79 105//75 97//77
f 110//80 108//78 109//79
f 97//77 107//25 50//23
f 109//79 97//77 111//81
f 50//23 111//81 97//77
f 112//82 110//80 109//79
f 109//79 111//81 112//82
f 111//81 50//23 47//24
f 47//24 55//22 111//81
f 111//81 55//22 112//82
f 55//22 114//83 112//82
f 114//83 55//22 57//11
f 114//83 57//11 113//46
f 100//70 117//84 93//67
f 100//70 96//68 99//69
f 96//68 100//70 93//67
f 93//67 117//84 116//85
f 115//86 93//67 116//85
f 112//82 93//67 115//86
f 94//66 93//67 112//82
f 118//87 80//47 119//88
f 74//64 75//65 91//62
f 75//65 118//87 91//62
f 118//87 75//65 94//66
f 120//89 119//88 80//47
f 94//66 80//47 118//87
f 94//66 112//82 80//47
f 112//82 113//46 80//47
f 114//83 113//46 112//82
f 42//90 44//91 41//92
f 39//93 43//94 40//95
f 43//94 38//96 40//95
f 36//97 38//96 43//94
f 35//98 43//94 39//93
f 34//99 39//93 40//95
f 34//99 42//90 39//93
f 42//90 41//92 39//93
f 21//100 27//101 24//102
f 24//102 27//101 28//103
f 123//10 121//8 31//7
f 123//10 124//104 121//8
f 121//8 124//104 5//105
f 123//10 7//106 124//104
f 7//106 123//10 16//107
f 14//108 9//109 23//110
f 19//111 14//108 23//110
f 122//5 1//112 11//113
f 29//4 1//112 122//5
f 122//5 11//113 30//2
f 1//112 29//4 22//114
f 29//4 4//115 22//114
f 135//136 133//137 134//138
f 135//136 134//138 136//139
f 133//137 137//140 134//138
f 137//140 133//137 135//136
f 136//139 134//138 137//140
f 139//141 135//141 138//141
f 139//141 137//141 135//141
f 137//141 139//141 136//141
f 141//141 135//141 140//141
f 135//141 136//141 140//141
f 139//141 140//141 136//141
f 138//141 135//141 141//141
f 142//142 143//143 139//144
f 139//144 138//145 142//142
f 143//143 144//146 139//144
f 140//147 139//144 144//146
f 144//146 145//148 141//149
f 141//149 140//147 144//146
f 145//148 142//142 138//145
f 138//145 141//149 145//148
usemtl mat-11
f 25//116 2//117 8//118
f 25//116 8//118 17//119
usemtl mat-12
f 37//120 39//93 44//91
f 44//91 39//93 41//92
f 36//97 43//94 35//98
usemtl mat-21
f 129//121 130//122 126//123
f 128//124 129//121 126//123
f 131//125 127//126 130//122
f 126//123 130//122 127//126
f 125//127 126//123 127//126
f 25//116 126//123 12//128
f 128//124 126//123 25//116
f 12//128 126//123 13//129
f 132//130 10//131 126//123
f 10//131 13//129 126//123
f 131//125 130//122 20//132
f 26//133 131//125 20//132
f 127//126 131//125 26//133
f 20//132 130//122 129//121
f 20//132 129//121 15//134
f 15//134 129//121 17//119
f 28//103 125//127 127//126
f 28//103 127//126 26//133
f 25//116 17//119 129//121
f 129//121 128//124 25//116
f 125//127 28//103 132//130
f 132//130 28//103 10//131
f 126//123 125//127 132//130
f 145//148 144//146 142//142
f 144//146 143//143 142//142
usemtl mat-22
f 4//115 3//1 64//26
f 1//112 72//44 23//110
f 21//100 42//90 70//43
f 49//3 10//135 70//43
f 25//116 12//128 11//113
f 11//113 12//128 49//3
f 49//3 30//2 11//113
f 13//129 49//3 12//128
f 34//99 66//42 70//43
f 73//45 65//34 19//111
f 73//45 19//111 23//110
f 34//99 69//41 66//42
f 68//40 40//95 67//38
f 68//40 34//99 40//95
f 68//40 69//41 34//99
f 40//95 71//37 67//38
f 14//108 7//106 8//118
f 24//102 38//96 36//97
f 37//120 44//91 21//100
f 32//9 16//107 123//10
f 17//119 8//118 7//106
f 48//21 124//104 6//33
f 18//35 124//104 48//21
f 33//6 5//105 18//35
f 5//105 33//6 121//8
f 5//105 124//104 18//35
f 9//109 1//112 23//110
f 124//104 7//106 6//33
f 37//120 35//98 39//93
f 34//99 70//43 42//90
f 23//110 72//44 73//45
f 2//117 9//109 8//118
f 1//112 22//114 72//44
f 22//114 53//29 72//44
f 22//114 64//26 53//29
f 4//115 64//26 22//114
f 4//115 29//4 3//1
f 21//100 44//91 42//90
f 9//109 2//117 1//112
f 65//34 6//33 19//111
f 19//111 6//33 7//106
f 19//111 7//106 14//108
f 35//98 37//120 21//100
f 38//96 24//102 71//37
f 24//102 36//97 35//98
f 9//109 14//108 8//118
f 38//96 71//37 40//95
f 24//102 35//98 21//100
f 21//100 70//43 10//135
f 21//100 10//135 27//101
f 16//107 17//119 7//106
f 15//134 17//119 16//107
f 16//107 32//9 15//134
f 15//134 32//9 20//132
f 20//132 32//9 26//133
f 26//133 32//9 71//37
f 26//133 71//37 24//102
f 28//103 26//133 24//102
f 10//135 28//103 27//101
f 13//129 10//135 49//3
f 2//117 25//116 1//112
f 1//112 25//116 11//113
